# xmcd CD database file
#
# Track frame offsets:
#	150
#	21550
#	66350
#	109062
#	144802
#	186352
#	224237
#	248500
#	257382
#	273940
#	301125
#	330092
#
# Disc length: 4707 seconds
#
# Revision: 0
# Processed by: cddbd v1.5.2PL0 Copyright (c) Steve Scherf et al.
# Submitted via: CDex 1.75
#
DISCID=a812610c
DTITLE=Gila Antara - Moondance
DYEAR=1995
DGENRE=New Age
TTITLE0=Return
TTITLE1=Spirit of the Wind
TTITLE2=Let the Nw in
TTITLE3=Aja - Morning Call
TTITLE4=Fill me
TTITLE5=There is no Rush
TTITLE6=Moondance
TTITLE7=Song-Weaving
TTITLE8=Clouds in the Sky
TTITLE9=All Winds blow
TTITLE10=Let me be close
TTITLE11=Into the Silence
EXTD=YEAR: 1995
EXTT0=
EXTT1=
EXTT2=
EXTT3=
EXTT4=
EXTT5=
EXTT6=
EXTT7=
EXTT8=
EXTT9=
EXTT10=
EXTT11=
PLAYORDER=
